<svg width="16" height="16" viewBox="0 0 16 16" fill="current" xmlns="http://www.w3.org/2000/svg">
    <g id="log-out-outline">
        <path d="M4.66669 3.99996C4.8435 3.99996 5.01307 3.92972 5.13809 3.8047C5.26312 3.67967 5.33335 3.5101 5.33335 3.33329C5.33335 3.15648 5.26312 2.98691 5.13809 2.86189C5.01307 2.73686 4.8435 2.66663 4.66669 2.66663H3.33335C3.15654 2.66663 2.98697 2.73686 2.86195 2.86189C2.73693 2.98691 2.66669 3.15648 2.66669 3.33329V12.6666C2.66669 12.8434 2.73693 13.013 2.86195 13.138C2.98697 13.2631 3.15654 13.3333 3.33335 13.3333H4.66669C4.8435 13.3333 5.01307 13.2631 5.13809 13.138C5.26312 13.013 5.33335 12.8434 5.33335 12.6666C5.33335 12.4898 5.26312 12.3202 5.13809 12.1952C5.01307 12.0702 4.8435 12 4.66669 12H4.00002V3.99996H4.66669Z"
              fill="inherit"/>
        <path d="M13.88 7.61338L12 4.94672C11.898 4.80299 11.7433 4.70548 11.5697 4.67549C11.396 4.64551 11.2176 4.6855 11.0733 4.78672C11.0012 4.83724 10.9399 4.90154 10.8927 4.97592C10.8456 5.05029 10.8137 5.13326 10.7988 5.22004C10.784 5.30681 10.7864 5.39568 10.8061 5.4815C10.8257 5.56732 10.8622 5.64839 10.9133 5.72005L12.06 7.33338H6.66667C6.48986 7.33338 6.32029 7.40362 6.19526 7.52864C6.07024 7.65367 6 7.82324 6 8.00005C6 8.17686 6.07024 8.34643 6.19526 8.47145C6.32029 8.59648 6.48986 8.66672 6.66667 8.66672H12L10.8 10.2667C10.7475 10.3368 10.7093 10.4165 10.6875 10.5013C10.6658 10.5861 10.661 10.6743 10.6734 10.761C10.6857 10.8477 10.7151 10.931 10.7597 11.0064C10.8043 11.0817 10.8633 11.1475 10.9333 11.2C11.0487 11.2866 11.1891 11.3334 11.3333 11.3334C11.4368 11.3334 11.5389 11.3093 11.6315 11.263C11.724 11.2167 11.8046 11.1495 11.8667 11.0667L13.8667 8.40005C13.952 8.28729 13.9994 8.15031 14.0018 8.00889C14.0041 7.86748 13.9615 7.72897 13.88 7.61338Z"
              fill="inherit"/>
    </g>
    <g id="trending-up-outline">
        <path d="M21 7C21.0095 6.93032 21.0095 6.85968 21 6.79C20.9913 6.73129 20.9745 6.67407 20.95 6.62C20.9236 6.57113 20.8935 6.52433 20.86 6.48C20.822 6.41675 20.7748 6.35947 20.72 6.31L20.6 6.24C20.5423 6.19696 20.4782 6.16321 20.41 6.14H20.21C20.1491 6.08099 20.0779 6.03356 20 6H15C14.7348 6 14.4804 6.10536 14.2929 6.29289C14.1054 6.48043 14 6.73478 14 7C14 7.26522 14.1054 7.51957 14.2929 7.70711C14.4804 7.89464 14.7348 8 15 8H17.83L13.83 12.71L9.51001 10.14C9.30539 10.0183 9.06406 9.97359 8.82943 10.0139C8.5948 10.0542 8.38225 10.177 8.23001 10.36L3.23001 16.36C3.1458 16.461 3.08236 16.5777 3.04332 16.7033C3.00427 16.8289 2.99039 16.961 3.00247 17.092C3.01454 17.2229 3.05234 17.3503 3.11369 17.4666C3.17504 17.5829 3.25875 17.6861 3.36001 17.77C3.53992 17.9191 3.76635 18.0005 4.00001 18C4.14692 18.0002 4.29207 17.9681 4.42516 17.9059C4.55824 17.8437 4.67598 17.7529 4.77001 17.64L9.22001 12.3L13.49 14.86C13.6925 14.9801 13.931 15.0249 14.1633 14.9865C14.3956 14.9481 14.6069 14.8289 14.76 14.65L19 9.7V12C19 12.2652 19.1054 12.5196 19.2929 12.7071C19.4804 12.8946 19.7348 13 20 13C20.2652 13 20.5196 12.8946 20.7071 12.7071C20.8946 12.5196 21 12.2652 21 12V7Z"
              fill="inherit"/>
    </g>
    <g id="home-outline">
        <path d="M20.42 10.18L12.71 2.29999C12.617 2.20627 12.5064 2.13187 12.3846 2.0811C12.2627 2.03033 12.132 2.0042 12 2.0042C11.868 2.0042 11.7373 2.03033 11.6154 2.0811C11.4936 2.13187 11.383 2.20627 11.29 2.29999L3.57999 10.19C3.39343 10.3781 3.24609 10.6013 3.14652 10.8468C3.04695 11.0923 2.99715 11.3551 2.99999 11.62V20C2.99922 20.5119 3.19477 21.0046 3.54637 21.3767C3.89797 21.7488 4.37885 21.9718 4.88999 22H19.11C19.6211 21.9718 20.102 21.7488 20.4536 21.3767C20.8052 21.0046 21.0008 20.5119 21 20V11.62C21.0008 11.0829 20.7928 10.5666 20.42 10.18ZM9.99999 20V14H14V20H9.99999ZM19 20H16V13C16 12.7348 15.8946 12.4804 15.7071 12.2929C15.5196 12.1054 15.2652 12 15 12H8.99999C8.73478 12 8.48042 12.1054 8.29289 12.2929C8.10535 12.4804 7.99999 12.7348 7.99999 13V20H4.99999V11.58L12 4.42999L19 11.62V20Z"
              fill="inherit"/>
    </g>
    <g id="plus-square-outline">
        <path d="M18 3H6C5.20435 3 4.44129 3.31607 3.87868 3.87868C3.31607 4.44129 3 5.20435 3 6V18C3 18.7956 3.31607 19.5587 3.87868 20.1213C4.44129 20.6839 5.20435 21 6 21H18C18.7956 21 19.5587 20.6839 20.1213 20.1213C20.6839 19.5587 21 18.7956 21 18V6C21 5.20435 20.6839 4.44129 20.1213 3.87868C19.5587 3.31607 18.7956 3 18 3ZM19 18C19 18.2652 18.8946 18.5196 18.7071 18.7071C18.5196 18.8946 18.2652 19 18 19H6C5.73478 19 5.48043 18.8946 5.29289 18.7071C5.10536 18.5196 5 18.2652 5 18V6C5 5.73478 5.10536 5.48043 5.29289 5.29289C5.48043 5.10536 5.73478 5 6 5H18C18.2652 5 18.5196 5.10536 18.7071 5.29289C18.8946 5.48043 19 5.73478 19 6V18Z"
              fill="black"/>
        <path d="M15 11H13V9C13 8.73478 12.8946 8.48043 12.7071 8.29289C12.5196 8.10536 12.2652 8 12 8C11.7348 8 11.4804 8.10536 11.2929 8.29289C11.1054 8.48043 11 8.73478 11 9V11H9C8.73478 11 8.48043 11.1054 8.29289 11.2929C8.10536 11.4804 8 11.7348 8 12C8 12.2652 8.10536 12.5196 8.29289 12.7071C8.48043 12.8946 8.73478 13 9 13H11V15C11 15.2652 11.1054 15.5196 11.2929 15.7071C11.4804 15.8946 11.7348 16 12 16C12.2652 16 12.5196 15.8946 12.7071 15.7071C12.8946 15.5196 13 15.2652 13 15V13H15C15.2652 13 15.5196 12.8946 15.7071 12.7071C15.8946 12.5196 16 12.2652 16 12C16 11.7348 15.8946 11.4804 15.7071 11.2929C15.5196 11.1054 15.2652 11 15 11Z"
              fill="inherit"/>
    </g>
    <g id="person-outline">
        <path d="M12 11C12.7911 11 13.5645 10.7654 14.2223 10.3259C14.8801 9.88635 15.3928 9.26164 15.6955 8.53074C15.9983 7.79983 16.0775 6.99556 15.9231 6.21964C15.7688 5.44372 15.3878 4.73098 14.8284 4.17157C14.269 3.61216 13.5563 3.2312 12.7804 3.07686C12.0044 2.92252 11.2002 3.00173 10.4693 3.30448C9.73836 3.60723 9.11365 4.11992 8.67412 4.77772C8.2346 5.43552 8 6.20888 8 7C8 8.06087 8.42143 9.07828 9.17157 9.82843C9.92172 10.5786 10.9391 11 12 11ZM12 5C12.3956 5 12.7822 5.1173 13.1111 5.33706C13.44 5.55683 13.6964 5.86918 13.8478 6.23463C13.9991 6.60009 14.0387 7.00222 13.9616 7.39018C13.8844 7.77814 13.6939 8.13451 13.4142 8.41422C13.1345 8.69392 12.7781 8.8844 12.3902 8.96157C12.0022 9.03874 11.6001 8.99914 11.2346 8.84776C10.8692 8.69639 10.5568 8.44004 10.3371 8.11114C10.1173 7.78224 10 7.39556 10 7C10 6.46957 10.2107 5.96086 10.5858 5.58579C10.9609 5.21072 11.4696 5 12 5Z"
              fill="inherit"/>
        <path d="M12 13C10.1435 13 8.36301 13.7375 7.05025 15.0503C5.7375 16.363 5 18.1435 5 20C5 20.2652 5.10536 20.5196 5.29289 20.7071C5.48043 20.8946 5.73478 21 6 21C6.26522 21 6.51957 20.8946 6.70711 20.7071C6.89464 20.5196 7 20.2652 7 20C7 18.6739 7.52678 17.4021 8.46447 16.4645C9.40215 15.5268 10.6739 15 12 15C13.3261 15 14.5979 15.5268 15.5355 16.4645C16.4732 17.4021 17 18.6739 17 20C17 20.2652 17.1054 20.5196 17.2929 20.7071C17.4804 20.8946 17.7348 21 18 21C18.2652 21 18.5196 20.8946 18.7071 20.7071C18.8946 20.5196 19 20.2652 19 20C19 18.1435 18.2625 16.363 16.9497 15.0503C15.637 13.7375 13.8565 13 12 13Z"
              fill="inherit"/>
    </g>
    <g id="bookmark-outline">
        <path d="M6.09 21.06C5.82479 21.06 5.57043 20.9546 5.3829 20.7671C5.19536 20.5796 5.09 20.3252 5.09 20.06L4.94 5.4C4.92796 5.10234 4.97489 4.80525 5.07808 4.52579C5.18127 4.24633 5.33869 3.99004 5.54129 3.77164C5.74389 3.55324 5.98767 3.37705 6.2586 3.25321C6.52954 3.12936 6.82228 3.0603 7.12 3.05L16.71 3C17.0081 3.00521 17.3023 3.06909 17.5757 3.18801C17.8491 3.30692 18.0964 3.47854 18.3035 3.69305C18.5106 3.90756 18.6734 4.16077 18.7826 4.43821C18.8918 4.71565 18.9453 5.01189 18.94 5.31L19.08 19.97C19.0817 20.1452 19.0374 20.3178 18.9514 20.4705C18.8654 20.6232 18.7407 20.7506 18.59 20.84C18.438 20.9278 18.2655 20.974 18.09 20.974C17.9145 20.974 17.742 20.9278 17.59 20.84L11.89 17.68L6.6 20.91C6.44336 20.9975 6.26908 21.0488 6.09 21.06ZM11.85 15.51C12.0238 15.5103 12.195 15.5514 12.35 15.63L17.06 18.24L16.94 5.29C16.94 5.09 16.81 4.95 16.73 4.96L7.13 5.05C7.05 5.05 6.94 5.18 6.94 5.38L7.06 18.28L11.34 15.65C11.4954 15.561 11.6709 15.5128 11.85 15.51Z"
              fill="inherit"/>
    </g>
    <g id="calendar-outline">
        <path d="M18 4H17V3C17 2.73478 16.8946 2.48043 16.7071 2.29289C16.5196 2.10536 16.2652 2 16 2C15.7348 2 15.4804 2.10536 15.2929 2.29289C15.1054 2.48043 15 2.73478 15 3V4H9V3C9 2.73478 8.89464 2.48043 8.70711 2.29289C8.51957 2.10536 8.26522 2 8 2C7.73478 2 7.48043 2.10536 7.29289 2.29289C7.10536 2.48043 7 2.73478 7 3V4H6C5.20435 4 4.44129 4.31607 3.87868 4.87868C3.31607 5.44129 3 6.20435 3 7V19C3 19.7956 3.31607 20.5587 3.87868 21.1213C4.44129 21.6839 5.20435 22 6 22H18C18.7956 22 19.5587 21.6839 20.1213 21.1213C20.6839 20.5587 21 19.7956 21 19V7C21 6.20435 20.6839 5.44129 20.1213 4.87868C19.5587 4.31607 18.7956 4 18 4ZM6 6H7V7C7 7.26522 7.10536 7.51957 7.29289 7.70711C7.48043 7.89464 7.73478 8 8 8C8.26522 8 8.51957 7.89464 8.70711 7.70711C8.89464 7.51957 9 7.26522 9 7V6H15V7C15 7.26522 15.1054 7.51957 15.2929 7.70711C15.4804 7.89464 15.7348 8 16 8C16.2652 8 16.5196 7.89464 16.7071 7.70711C16.8946 7.51957 17 7.26522 17 7V6H18C18.2652 6 18.5196 6.10536 18.7071 6.29289C18.8946 6.48043 19 6.73478 19 7V11H5V7C5 6.73478 5.10536 6.48043 5.29289 6.29289C5.48043 6.10536 5.73478 6 6 6ZM18 20H6C5.73478 20 5.48043 19.8946 5.29289 19.7071C5.10536 19.5196 5 19.2652 5 19V13H19V19C19 19.2652 18.8946 19.5196 18.7071 19.7071C18.5196 19.8946 18.2652 20 18 20Z"
              fill="inherit"/>
        <path d="M8 17C8.55228 17 9 16.5523 9 16C9 15.4477 8.55228 15 8 15C7.44772 15 7 15.4477 7 16C7 16.5523 7.44772 17 8 17Z"
              fill="inherit"/>
        <path d="M16 15H12C11.7348 15 11.4804 15.1054 11.2929 15.2929C11.1054 15.4804 11 15.7348 11 16C11 16.2652 11.1054 16.5196 11.2929 16.7071C11.4804 16.8946 11.7348 17 12 17H16C16.2652 17 16.5196 16.8946 16.7071 16.7071C16.8946 16.5196 17 16.2652 17 16C17 15.7348 16.8946 15.4804 16.7071 15.2929C16.5196 15.1054 16.2652 15 16 15Z"
              fill="inherit"/>
    </g>
    <g id="arrow-ios-Down-outline">
        <path d="M5.51414 9.45842C5.51369 9.22477 5.59506 8.99834 5.74414 8.81842C5.82809 8.71717 5.93119 8.63346 6.04754 8.57211C6.16389 8.51076 6.29119 8.47296 6.42217 8.46089C6.55315 8.44881 6.68522 8.46269 6.81082 8.50174C6.93643 8.54078 7.05309 8.60422 7.15414 8.68842L12.5141 13.1684L17.8841 8.84843C17.9864 8.76536 18.1041 8.70333 18.2305 8.6659C18.3568 8.62846 18.4893 8.61637 18.6203 8.63031C18.7514 8.64425 18.8783 8.68395 18.994 8.74712C19.1096 8.81029 19.2116 8.8957 19.2941 8.99843C19.3852 9.10189 19.4538 9.22306 19.4958 9.35432C19.5378 9.48558 19.5522 9.62411 19.5381 9.7612C19.5241 9.89829 19.4818 10.031 19.414 10.151C19.3462 10.271 19.2543 10.3756 19.1441 10.4584L13.1441 15.2884C12.9652 15.4355 12.7408 15.5159 12.5091 15.5159C12.2775 15.5159 12.0531 15.4355 11.8741 15.2884L5.87414 10.2884C5.75313 10.1881 5.65746 10.0607 5.59491 9.91646C5.53236 9.77225 5.50469 9.61533 5.51414 9.45842Z"
              fill="inherit"/>
    </g>
    <g id="logo">
        <path d="M70.9892 24.716C69.7047 24.716 68.5403 24.4392 67.4959 23.8856C66.4636 23.32 65.6473 22.5438 65.047 21.5569C64.4588 20.5581 64.1647 19.4329 64.1647 18.1813C64.1647 16.9297 64.4588 15.8105 65.047 14.8237C65.6473 13.8249 66.4636 13.0487 67.4959 12.4951C68.5403 11.9295 69.7107 11.6467 71.0072 11.6467C72.0996 11.6467 73.0839 11.8392 73.9602 12.2243C74.8485 12.6094 75.5928 13.163 76.193 13.885L74.3203 15.618C73.468 14.6312 72.4117 14.1378 71.1512 14.1378C70.3709 14.1378 69.6747 14.3123 69.0625 14.6613C68.4503 14.9982 67.9701 15.4736 67.622 16.0873C67.2858 16.7011 67.1178 17.3991 67.1178 18.1813C67.1178 18.9635 67.2858 19.6615 67.622 20.2753C67.9701 20.889 68.4503 21.3704 69.0625 21.7194C69.6747 22.0564 70.3709 22.2248 71.1512 22.2248C72.4117 22.2248 73.468 21.7254 74.3203 20.7266L76.193 22.4595C75.5928 23.1936 74.8485 23.7532 73.9602 24.1383C73.0719 24.5234 72.0815 24.716 70.9892 24.716Z"
              fill="white"/>
        <path d="M83.6574 24.716C81.8567 24.716 80.4522 24.2165 79.4439 23.2177C78.4475 22.2188 77.9493 20.7928 77.9493 18.9395V11.8633H80.8664V18.8312C80.8664 21.0936 81.8027 22.2248 83.6754 22.2248C84.5877 22.2248 85.2839 21.9541 85.7641 21.4125C86.2443 20.8589 86.4844 19.9985 86.4844 18.8312V11.8633H89.3654V18.9395C89.3654 20.7928 88.8612 22.2188 87.8529 23.2177C86.8565 24.2165 85.458 24.716 83.6574 24.716Z"
              fill="white"/>
        <path d="M101.503 17.9286C102.224 18.1572 102.788 18.5423 103.196 19.0839C103.604 19.6134 103.808 20.2693 103.808 21.0515C103.808 22.1587 103.376 23.0131 102.512 23.6148C101.659 24.2045 100.411 24.4993 98.7663 24.4993H92.248V11.8633H98.4062C99.9427 11.8633 101.119 12.1581 101.935 12.7478C102.764 13.3375 103.178 14.1378 103.178 15.1486C103.178 15.7624 103.028 16.31 102.728 16.7913C102.44 17.2727 102.031 17.6518 101.503 17.9286ZM95.147 14.0656V17.0441H98.046C98.7663 17.0441 99.3125 16.9177 99.6846 16.665C100.057 16.4123 100.243 16.0392 100.243 15.5458C100.243 15.0524 100.057 14.6853 99.6846 14.4446C99.3125 14.1919 98.7663 14.0656 98.046 14.0656H95.147ZM98.5502 22.297C99.3185 22.297 99.8947 22.1707 100.279 21.918C100.675 21.6652 100.873 21.2741 100.873 20.7446C100.873 19.6976 100.099 19.1741 98.5502 19.1741H95.147V22.297H98.5502Z"
              fill="white"/>
        <path d="M114.317 21.7916H108.465L107.349 24.4993H104.36L109.978 11.8633H112.859L118.495 24.4993H115.434L114.317 21.7916ZM113.399 19.5713L111.4 14.7335L109.402 19.5713H113.399Z"
              fill="white"/>
        <path d="M121.781 14.2461H117.747V11.8633H128.731V14.2461H124.698V24.4993H121.781V14.2461Z" fill="white"/>
        <path d="M136.229 24.716C134.92 24.716 133.738 24.4331 132.682 23.8675C131.637 23.3019 130.815 22.5257 130.215 21.5389C129.627 20.54 129.332 19.4208 129.332 18.1813C129.332 16.9418 129.627 15.8286 130.215 14.8418C130.815 13.8429 131.637 13.0607 132.682 12.4951C133.738 11.9295 134.92 11.6467 136.229 11.6467C137.537 11.6467 138.714 11.9295 139.758 12.4951C140.802 13.0607 141.625 13.8429 142.225 14.8418C142.825 15.8286 143.125 16.9418 143.125 18.1813C143.125 19.4208 142.825 20.54 142.225 21.5389C141.625 22.5257 140.802 23.3019 139.758 23.8675C138.714 24.4331 137.537 24.716 136.229 24.716ZM136.229 22.2248C136.973 22.2248 137.645 22.0564 138.246 21.7194C138.846 21.3704 139.314 20.889 139.65 20.2753C139.998 19.6615 140.172 18.9635 140.172 18.1813C140.172 17.3991 139.998 16.7011 139.65 16.0873C139.314 15.4736 138.846 14.9982 138.246 14.6613C137.645 14.3123 136.973 14.1378 136.229 14.1378C135.485 14.1378 134.812 14.3123 134.212 14.6613C133.612 14.9982 133.138 15.4736 132.79 16.0873C132.454 16.7011 132.285 17.3991 132.285 18.1813C132.285 18.9635 132.454 19.6615 132.79 20.2753C133.138 20.889 133.612 21.3704 134.212 21.7194C134.812 22.0564 135.485 22.2248 136.229 22.2248Z"
              fill="white"/>
        <path d="M153.348 24.4993L150.918 20.9793H150.774H148.235V24.4993H145.318V11.8633H150.774C151.89 11.8633 152.856 12.0498 153.673 12.4229C154.501 12.7959 155.137 13.3254 155.581 14.0114C156.025 14.6974 156.247 15.5097 156.247 16.4484C156.247 17.387 156.019 18.1994 155.563 18.8853C155.119 19.5592 154.483 20.0767 153.655 20.4377L156.482 24.4993H153.348ZM153.294 16.4484C153.294 15.7383 153.066 15.1968 152.61 14.8237C152.154 14.4386 151.488 14.2461 150.611 14.2461H148.235V18.6506H150.611C151.488 18.6506 152.154 18.4581 152.61 18.073C153.066 17.6879 153.294 17.1463 153.294 16.4484Z"
              fill="white"/>
        <path d="M0 11.8784H2.91247V24.4724H0V11.8784Z" fill="white"/>
        <path d="M8.50595 14.2532H4.47883V11.8784H15.4455V14.2532H11.4184V24.4724H8.50595V14.2532Z" fill="white"/>
        <path d="M33.7412 11.8784H36.6578V24.4724H33.7412V11.8784Z" fill="white"/>
        <path d="M51.2066 11.8784V24.4724H48.8122L42.529 16.826V24.4724H39.6485V11.8784H42.061L48.3261 19.5248V11.8784H51.2066Z"
              fill="white"/>
        <path fill-rule="evenodd" clip-rule="evenodd"
              d="M34.9871 6.53499C36.0696 6.53499 36.9474 7.41279 36.9474 8.49538C36.9474 9.57798 36.0696 10.4558 34.9871 10.4558C33.9045 10.4558 33.0266 9.57798 33.0266 8.49538C33.0266 7.41279 33.9045 6.53499 34.9871 6.53499Z"
              fill="#FF0808"/>
        <path fill-rule="evenodd" clip-rule="evenodd"
              d="M19.4921 16.0372C20.6078 16.0372 21.512 16.9147 21.512 17.9976C21.512 19.0805 20.6078 19.958 19.4921 19.958C18.3765 19.958 17.4724 19.0805 17.4724 17.9976C17.4724 16.9147 18.3765 16.0372 19.4921 16.0372Z"
              fill="white"/>
        <path fill-rule="evenodd" clip-rule="evenodd"
              d="M42.4778 34.5C51.5905 34.5 58.9778 27.1127 58.9778 18C58.9778 8.8873 51.5905 1.5 42.4778 1.5C33.3651 1.5 25.9778 8.8873 25.9778 18C25.9778 27.1127 33.3651 34.5 42.4778 34.5ZM42.4778 36C52.419 36 60.4778 27.9411 60.4778 18C60.4778 8.05887 52.419 0 42.4778 0C32.5367 0 24.4778 8.05887 24.4778 18C24.4778 27.9411 32.5367 36 42.4778 36Z"
              fill="white"/>
    </g>
    <g id="stub-avatar">
        <path d="M223.214,152.723h-32.237c16.306-20.152,26.76-47.195,26.76-71.415
			C217.737,36.474,181.262,0,136.428,0S55.114,36.474,55.114,81.309c0,24.22,10.454,51.263,26.76,71.415H49.164
			c-14.86,0-28.544,7.468-36.599,19.972c-5.673,8.811-6.864,24.242-3.535,45.868l4.259,27.701
			c2.246,14.647,15.621,26.118,30.437,26.118h184.928c14.816,0,28.191-11.471,30.442-26.118l4.259-27.701
			c3.329-21.626,2.138-37.056-3.535-45.868C251.758,160.191,238.073,152.723,223.214,152.723z M248.342,244.616
			c-1.409,9.154-10.427,16.888-19.689,16.888H43.725c-9.263,0-18.281-7.734-19.689-16.888l-4.259-27.701
			c-2.828-18.389-2.143-31.998,1.931-38.324c6.043-9.388,16.312-14.99,27.456-14.99h42.838
			c12.901,11.988,28.229,19.668,44.421,19.668s31.525-7.68,44.421-19.668h42.37c11.145,0,21.414,5.602,27.456,14.985
			c4.079,6.326,4.759,19.94,1.931,38.324L248.342,244.616z M207.408,81.309c0,24.438-12.276,52.786-30.263,71.415
			c-1.86,1.925-3.775,3.737-5.749,5.439c-2.29,1.974-4.64,3.813-7.065,5.439c-8.686,5.831-18.145,9.339-27.908,9.339
			s-19.216-3.508-27.902-9.339c-2.426-1.626-4.775-3.465-7.065-5.439c-1.974-1.702-3.889-3.514-5.749-5.439
			c-17.987-18.629-30.263-46.972-30.263-71.415c0-39.14,31.84-70.985,70.985-70.985S207.408,42.169,207.408,81.309z" fill="white"/>
    </g>
</svg>
